<svg width="312" height="103" viewBox="0 0 312 103" fill="none" xmlns="http://www.w3.org/2000/svg">
<path d="M82.7697 13.1392H86.5282C85.9018 9.14204 82.4416 6.35795 77.9373 6.35795C72.6078 6.35795 68.6106 10.2756 68.6106 16.8381C68.6106 23.2812 72.4288 27.2784 78.0467 27.2784C83.0879 27.2784 86.6973 24.0369 86.6973 18.7869V16.3409H78.4345V19.2244H83.1277C83.068 22.1278 81.1291 23.9673 78.0666 23.9673C74.6561 23.9673 72.3194 21.4119 72.3194 16.7983C72.3194 12.2145 74.6958 9.66903 77.987 9.66903C80.443 9.66903 82.1135 10.9815 82.7697 13.1392ZM99.8397 20.5767C99.8397 22.9034 98.1792 24.0568 96.5882 24.0568C94.8581 24.0568 93.7047 22.8338 93.7047 20.8949V11.7273H90.1053V21.4517C90.1053 25.1207 92.1934 27.1989 95.1962 27.1989C97.4831 27.1989 99.0939 25.9957 99.79 24.2855H99.949V27H103.439V11.7273H99.8397V20.5767ZM111.535 27.3082C113.932 27.3082 115.363 26.1847 116.02 24.902H116.139V27H119.599V16.7784C119.599 12.7415 116.308 11.5284 113.395 11.5284C110.183 11.5284 107.717 12.9602 106.922 15.7443L110.282 16.2216C110.64 15.1776 111.655 14.2827 113.415 14.2827C115.085 14.2827 116 15.1378 116 16.6392V16.6989C116 17.733 114.916 17.7827 112.221 18.071C109.258 18.3892 106.425 19.2741 106.425 22.7145C106.425 25.7173 108.622 27.3082 111.535 27.3082ZM112.47 24.6634C110.969 24.6634 109.895 23.9773 109.895 22.6548C109.895 21.2727 111.098 20.696 112.709 20.4673C113.653 20.3381 115.542 20.0994 116.01 19.7216V21.5213C116.01 23.2216 114.638 24.6634 112.47 24.6634ZM123.219 11.7273V27.8253C123.219 29.108 122.672 29.794 121.29 29.794C121.111 29.794 120.971 29.7841 120.773 29.7741V32.7074C121.031 32.7273 121.25 32.7273 121.508 32.7273C124.879 32.7273 126.818 31.1761 126.818 27.875V11.7273H123.219ZM125.008 9.55966C126.152 9.55966 127.086 8.68466 127.086 7.61079C127.086 6.52699 126.152 5.65199 125.008 5.65199C123.855 5.65199 122.92 6.52699 122.92 7.61079C122.92 8.68466 123.855 9.55966 125.008 9.55966ZM137.181 27.2983C141.656 27.2983 144.499 24.1463 144.499 19.4233C144.499 14.6903 141.656 11.5284 137.181 11.5284C132.707 11.5284 129.863 14.6903 129.863 19.4233C129.863 24.1463 132.707 27.2983 137.181 27.2983ZM137.201 24.4148C134.725 24.4148 133.512 22.2074 133.512 19.4134C133.512 16.6193 134.725 14.3821 137.201 14.3821C139.637 14.3821 140.85 16.6193 140.85 19.4134C140.85 22.2074 139.637 24.4148 137.201 24.4148ZM151.154 6.63636H147.555V27H151.154V6.63636ZM161.517 27.2983C165.992 27.2983 168.835 24.1463 168.835 19.4233C168.835 14.6903 165.992 11.5284 161.517 11.5284C157.043 11.5284 154.199 14.6903 154.199 19.4233C154.199 24.1463 157.043 27.2983 161.517 27.2983ZM161.537 24.4148C159.061 24.4148 157.848 22.2074 157.848 19.4134C157.848 16.6193 159.061 14.3821 161.537 14.3821C163.973 14.3821 165.186 16.6193 165.186 19.4134C165.186 22.2074 163.973 24.4148 161.537 24.4148ZM179.517 11.7273H176.504V8.06818H172.905V11.7273H170.737V14.5114H172.905V23.0028C172.885 25.8764 174.973 27.2884 177.677 27.2088C178.702 27.179 179.407 26.9801 179.795 26.8509L179.189 24.0369C178.99 24.0866 178.582 24.1761 178.135 24.1761C177.23 24.1761 176.504 23.858 176.504 22.4062V14.5114H179.517V11.7273ZM186.922 27.3082C189.318 27.3082 190.75 26.1847 191.406 24.902H191.526V27H194.986V16.7784C194.986 12.7415 191.695 11.5284 188.781 11.5284C185.57 11.5284 183.104 12.9602 182.308 15.7443L185.669 16.2216C186.027 15.1776 187.041 14.2827 188.801 14.2827C190.472 14.2827 191.387 15.1378 191.387 16.6392V16.6989C191.387 17.733 190.303 17.7827 187.608 18.071C184.645 18.3892 181.811 19.2741 181.811 22.7145C181.811 25.7173 184.009 27.3082 186.922 27.3082ZM187.857 24.6634C186.355 24.6634 185.281 23.9773 185.281 22.6548C185.281 21.2727 186.485 20.696 188.095 20.4673C189.04 20.3381 190.929 20.0994 191.396 19.7216V21.5213C191.396 23.2216 190.024 24.6634 187.857 24.6634ZM211.218 27.2685C213.843 27.2685 215.026 25.7074 215.593 24.5938H215.812V27H219.352V6.63636H215.742V14.2528H215.593C215.046 13.1491 213.923 11.5284 211.228 11.5284C207.698 11.5284 204.924 14.2926 204.924 19.3835C204.924 24.4148 207.619 27.2685 211.218 27.2685ZM212.222 24.3153C209.846 24.3153 208.593 22.2273 208.593 19.3636C208.593 16.5199 209.826 14.4815 212.222 14.4815C214.539 14.4815 215.812 16.4006 215.812 19.3636C215.812 22.3267 214.519 24.3153 212.222 24.3153ZM229.949 27.2983C233.508 27.2983 235.954 25.5582 236.591 22.9034L233.23 22.5256C232.743 23.8182 231.55 24.4943 229.998 24.4943C227.672 24.4943 226.131 22.9631 226.101 20.348H236.74V19.2443C236.74 13.8849 233.518 11.5284 229.76 11.5284C225.385 11.5284 222.531 14.7401 222.531 19.4531C222.531 24.2457 225.345 27.2983 229.949 27.2983ZM226.111 17.9219C226.22 15.973 227.662 14.3324 229.809 14.3324C231.878 14.3324 233.27 15.8438 233.29 17.9219H226.111ZM73.182 43.7287H79.476V61H83.1351V43.7287H89.4292V40.6364H73.182V43.7287ZM94.7189 61.3082C97.1152 61.3082 98.5471 60.1847 99.2033 58.902H99.3226V61H102.783V50.7784C102.783 46.7415 99.4917 45.5284 96.5783 45.5284C93.3667 45.5284 90.9007 46.9602 90.1053 49.7443L93.4661 50.2216C93.824 49.1776 94.8382 48.2827 96.5982 48.2827C98.2686 48.2827 99.1834 49.1378 99.1834 50.6392V50.6989C99.1834 51.733 98.0996 51.7827 95.405 52.071C92.4419 52.3892 89.6081 53.2741 89.6081 56.7145C89.6081 59.7173 91.8056 61.3082 94.7189 61.3082ZM95.6536 58.6634C94.1522 58.6634 93.0783 57.9773 93.0783 56.6548C93.0783 55.2727 94.2814 54.696 95.8922 54.4673C96.8368 54.3381 98.726 54.0994 99.1934 53.7216V55.5213C99.1934 57.2216 97.8212 58.6634 95.6536 58.6634ZM106.402 61H110.002V51.7131C110.002 49.8338 111.254 48.5611 112.806 48.5611C114.327 48.5611 115.371 49.5852 115.371 51.1562V61H118.901V51.4744C118.901 49.7543 119.925 48.5611 121.665 48.5611C123.117 48.5611 124.27 49.4162 124.27 51.3054V61H127.879V50.7486C127.879 47.3381 125.911 45.5284 123.107 45.5284C120.889 45.5284 119.199 46.6222 118.523 48.3224H118.364C117.777 46.5923 116.296 45.5284 114.237 45.5284C112.189 45.5284 110.658 46.5824 110.021 48.3224H109.843V45.7273H106.402V61ZM135.926 61.3082C138.322 61.3082 139.754 60.1847 140.41 58.902H140.53V61H143.99V50.7784C143.99 46.7415 140.699 45.5284 137.785 45.5284C134.574 45.5284 132.108 46.9602 131.312 49.7443L134.673 50.2216C135.031 49.1776 136.045 48.2827 137.805 48.2827C139.476 48.2827 140.39 49.1378 140.39 50.6392V50.6989C140.39 51.733 139.307 51.7827 136.612 52.071C133.649 52.3892 130.815 53.2741 130.815 56.7145C130.815 59.7173 133.013 61.3082 135.926 61.3082ZM136.861 58.6634C135.359 58.6634 134.285 57.9773 134.285 56.6548C134.285 55.2727 135.488 54.696 137.099 54.4673C138.044 54.3381 139.933 54.0994 140.4 53.7216V55.5213C140.4 57.2216 139.028 58.6634 136.861 58.6634ZM151.209 40.6364H147.609V61H151.209V40.6364ZM164.739 40.6364H160.692L167.861 61H172.415L179.594 40.6364H175.537L170.247 56.6648H170.039L164.739 40.6364ZM187.238 61.2983C190.797 61.2983 193.243 59.5582 193.88 56.9034L190.519 56.5256C190.032 57.8182 188.839 58.4943 187.287 58.4943C184.961 58.4943 183.42 56.9631 183.39 54.348H194.029V53.2443C194.029 47.8849 190.807 45.5284 187.049 45.5284C182.674 45.5284 179.82 48.7401 179.82 53.4531C179.82 58.2457 182.634 61.2983 187.238 61.2983ZM183.4 51.9219C183.509 49.973 184.951 48.3324 187.099 48.3324C189.167 48.3324 190.559 49.8438 190.579 51.9219H183.4ZM197.074 61H200.673V52.0213C200.673 50.0824 202.135 48.7102 204.114 48.7102C204.72 48.7102 205.476 48.8196 205.784 48.919V45.608C205.456 45.5483 204.889 45.5085 204.492 45.5085C202.742 45.5085 201.28 46.5028 200.723 48.2727H200.564V45.7273H197.074V61ZM213.214 61.2685C215.839 61.2685 217.023 59.7074 217.589 58.5938H217.808V61H221.348V40.6364H217.738V48.2528H217.589C217.042 47.1491 215.919 45.5284 213.224 45.5284C209.694 45.5284 206.92 48.2926 206.92 53.3835C206.92 58.4148 209.615 61.2685 213.214 61.2685ZM214.219 58.3153C211.842 58.3153 210.589 56.2273 210.589 53.3636C210.589 50.5199 211.822 48.4815 214.219 48.4815C216.535 48.4815 217.808 50.4006 217.808 53.3636C217.808 56.3267 216.515 58.3153 214.219 58.3153ZM231.945 61.2983C235.504 61.2983 237.95 59.5582 238.587 56.9034L235.226 56.5256C234.739 57.8182 233.546 58.4943 231.994 58.4943C229.668 58.4943 228.127 56.9631 228.097 54.348H238.736V53.2443C238.736 47.8849 235.514 45.5284 231.756 45.5284C227.381 45.5284 224.527 48.7401 224.527 53.4531C224.527 58.2457 227.341 61.2983 231.945 61.2983ZM228.107 51.9219C228.216 49.973 229.658 48.3324 231.806 48.3324C233.874 48.3324 235.266 49.8438 235.286 51.9219H228.107Z" fill="#0D0D0D"/>
<path d="M112.954 100H114.61L114.618 98.2109C117.97 97.9687 119.892 96.125 119.899 93.5078C119.892 90.7344 117.603 89.4687 115.196 88.8984L114.681 88.7656L114.712 84.3047C115.962 84.5234 116.767 85.2734 116.892 86.3984H119.681C119.634 83.9141 117.681 82.1016 114.728 81.8203L114.735 80H113.079L113.071 81.8203C110.142 82.1172 108.032 83.9141 108.04 86.5C108.04 88.7969 109.673 90.1172 112.306 90.7969L113.009 90.9766L112.978 95.7031C111.579 95.4844 110.571 94.6875 110.47 93.2734H107.618C107.728 96.2031 109.743 97.9453 112.962 98.2109L112.954 100ZM114.634 95.7031L114.665 91.4141C116.087 91.8281 116.993 92.375 117.001 93.4844C116.993 94.6406 116.063 95.4687 114.634 95.7031ZM113.024 88.3437C111.946 88 110.962 87.4297 110.978 86.3203C110.985 85.3125 111.743 84.5312 113.056 84.3047L113.024 88.3437ZM122.327 98H133.296V95.5781H126.327V95.4687L129.085 92.6641C132.194 89.6797 133.054 88.2266 133.054 86.4219C133.054 83.7422 130.874 81.7812 127.655 81.7812C124.483 81.7812 122.233 83.75 122.233 86.7891H124.991C124.991 85.1563 126.022 84.1328 127.616 84.1328C129.14 84.1328 130.272 85.0625 130.272 86.5703C130.272 87.9062 129.46 88.8594 127.882 90.4609L122.327 95.9062V98ZM141.554 98.2187C144.937 98.2187 147.296 95.9219 147.296 92.7422C147.296 89.6641 145.155 87.4453 142.249 87.4453C140.952 87.4453 139.804 87.9609 139.21 88.6641H139.116L139.577 84.4219H146.46V82H137.179L136.343 90.25L138.96 90.6797C139.499 90.0859 140.515 89.6875 141.476 89.6953C143.233 89.7031 144.499 91 144.491 92.8125C144.499 94.6016 143.265 95.875 141.554 95.875C140.108 95.875 138.944 94.9609 138.843 93.6484H136.03C136.108 96.3047 138.429 98.2187 141.554 98.2187ZM155.526 82V98H158.308V86.9844H158.456L162.878 97.9531H164.956L169.378 87.0078H169.526V98H172.308V82H168.761L164.011 93.5937H163.823L159.073 82H155.526ZM177.886 82H174.565L179.558 90L174.503 98H177.847L181.409 92.1797H181.534L185.097 98H188.456L183.448 90L188.378 82H185.073L181.534 87.8594H181.409L177.886 82ZM203.802 82H200.919V92.9062H200.778L193.247 82H190.653V98H193.552V87.1016H193.685L201.224 98H203.802V82Z" fill="#FA4A0C"/>
</svg>
